<svg xmlns="http://www.w3.org/2000/svg" width="1200" height="630" viewBox="0 0 1200 630" font-family="Inter, system-ui, sans-serif">
  <defs>
    <radialGradient id="globe" cx="42%" cy="38%" r="70%">
      <stop offset="0%" stop-color="#2a5e90"/>
      <stop offset="100%" stop-color="#0c2138"/>
    </radialGradient>
    <radialGradient id="halo" cx="50%" cy="50%" r="50%">
      <stop offset="60%" stop-color="rgba(120,170,255,.18)"/>
      <stop offset="100%" stop-color="rgba(120,170,255,0)"/>
    </radialGradient>
  </defs>

  <rect width="1200" height="630" fill="#070b16"/>
  <!-- stars -->
  <g fill="#cdd8f0">
    <circle cx="120" cy="90" r="1.6" opacity=".7"/><circle cx="320" cy="60" r="1.1" opacity=".5"/>
    <circle cx="900" cy="80" r="1.4" opacity=".6"/><circle cx="1080" cy="160" r="1.2" opacity=".5"/>
    <circle cx="1010" cy="520" r="1.5" opacity=".6"/><circle cx="200" cy="540" r="1.2" opacity=".5"/>
    <circle cx="80" cy="360" r="1.3" opacity=".5"/><circle cx="1130" cy="380" r="1.1" opacity=".5"/>
  </g>

  <!-- globe -->
  <g transform="translate(330 315)">
    <circle r="250" fill="url(#halo)"/>
    <circle r="200" fill="url(#globe)" stroke="rgba(150,200,255,.25)" stroke-width="1.5"/>
    <g fill="none" stroke="rgba(255,255,255,.10)" stroke-width="1">
      <ellipse rx="200" ry="66"/><ellipse rx="200" ry="132"/>
      <ellipse rx="66" ry="200"/><ellipse rx="132" ry="200"/>
    </g>
    <!-- a couple of accented "countries" -->
    <path d="M-70-40 q40-30 90-10 q20 40-10 70 q-50 25-90-5 q-25-35 10-55z" fill="rgba(70,160,116,.92)"/>
    <path d="M20 40 q55-10 80 30 q5 45-45 55 q-55 0-60-45 q5-30 25-40z" fill="#f6a13c" opacity=".85"/>
  </g>

  <!-- text -->
  <g transform="translate(660 250)">
    <text x="0" y="0" fill="#eef2fb" font-size="92" font-weight="700" letter-spacing="-1">PlanetLogin</text>
    <text x="0" y="64" fill="#9aa7bd" font-size="36" font-weight="500">Sign in with a planet.</text>
    <text x="0" y="150" fill="#cdd8f0" font-size="27" font-weight="400">Detects timezone, language &amp; location</text>
    <text x="0" y="190" fill="#cdd8f0" font-size="27" font-weight="400">from one pick — no API key, no tracking.</text>
    <g transform="translate(0 250)">
      <rect x="0" y="-30" width="220" height="44" rx="22" fill="#f6a13c"/>
      <text x="110" y="0" fill="#231400" font-size="24" font-weight="700" text-anchor="middle">planetlogin.org</text>
      <text x="248" y="0" fill="#9aa7bd" font-size="22" font-weight="500">open source · AGPL-3.0</text>
    </g>
  </g>
</svg>
