<svg xmlns="http://www.w3.org/2000/svg" width="1200" height="630" viewBox="0 0 1200 630" font-family="sans-serif">
  <defs>
    <radialGradient id="halo" cx="50%" cy="50%" r="50%">
      <stop offset="55%" stop-color="rgba(120,170,255,.20)"/>
      <stop offset="100%" stop-color="rgba(120,170,255,0)"/>
    </radialGradient>
  </defs>
  <rect width="1200" height="630" fill="#070b16"/>
  <g fill="#cdd8f0">
    <circle cx="110" cy="90" r="1.6" opacity=".7"/><circle cx="300" cy="60" r="1.1" opacity=".5"/>
    <circle cx="900" cy="80" r="1.4" opacity=".6"/><circle cx="1080" cy="150" r="1.2" opacity=".5"/>
    <circle cx="1000" cy="540" r="1.5" opacity=".6"/><circle cx="190" cy="540" r="1.2" opacity=".5"/>
    <circle cx="70" cy="360" r="1.3" opacity=".5"/><circle cx="1130" cy="380" r="1.1" opacity=".5"/>
  </g>
  <!-- globe on the left -->
  <circle cx="270" cy="315" r="200" fill="url(#halo)"/>
  <g transform="translate(150 165) scale(10)">
    <path fill="#f6a13c" d="M17.9 17.39c-.26-.8-1.01-1.39-1.9-1.39h-1v-3a1 1 0 0 0-1-1H8v-2h2a1 1 0 0 0 1-1V7h2a2 2 0 0 0 2-2v-.41A7.984 7.984 0 0 1 20 12c0 2.08-.81 3.98-2.1 5.39M11 19.93C7.05 19.44 4 16.08 4 12c0-.62.08-1.21.21-1.79L9 15v1a2 2 0 0 0 2 2m1-16A10 10 0 0 0 2 12a10 10 0 0 0 10 10a10 10 0 0 0 10-10A10 10 0 0 0 12 2"/>
  </g>
  <!-- text block -->
  <g transform="translate(540 232)">
    <text x="0" y="0" fill="#eef2fb" font-size="74" font-weight="700">PlanetLogin</text>
    <text x="0" y="52" fill="#9aa7bd" font-size="30" font-weight="500">Sign in with a planet.</text>
    <text x="0" y="124" fill="#cdd8f0" font-size="25">Detects timezone, language</text>
    <text x="0" y="158" fill="#cdd8f0" font-size="25">and location — no API key.</text>
    <g transform="translate(0 222)">
      <rect x="0" y="-30" width="208" height="44" rx="22" fill="#f6a13c"/>
      <text x="104" y="0" fill="#231400" font-size="23" font-weight="700" text-anchor="middle">planetlogin.org</text>
      <text x="230" y="0" fill="#9aa7bd" font-size="21" font-weight="500">open source · AGPL-3.0</text>
    </g>
  </g>
</svg>
